# xmcd CD database file
#
# Track frame offsets:
#	150
#	17030
#	46570
#	67375
#	94530
#	102927
#	117827
#	155542
#	185052
#	202050
#
# Disc length: 3103 seconds
#
# Revision: 6
# Processed by: cddbd v1.5.2PL0 Copyright (c) Steve Scherf et al.
# Submitted via: CDex 1.51
#
DISCID=860c1d0a
DTITLE=Rachmaninoff - Liturgy of St John Chrysostom [beginning] (V.Polyansky, Russian State Symphony Cappella)
DYEAR=2008
DGENRE=Classique
TTITLE0=Liturgy of St. John Chrysostom Op.31 - Great Ektenia
TTITLE1=Liturgy of St. John Chrysostom Op.31 - First Antiphon
TTITLE2=Liturgy of St. John Chrysostom Op.31 - Second Antiphon
TTITLE3=Liturgy of St. John Chrysostom Op.31 - Third Antiphon
TTITLE4=Liturgy of St. John Chrysostom Op.31 - Entrance Hymn
TTITLE5=Liturgy of St. John Chrysostom Op.31 - Trisagion Hymn
TTITLE6=Liturgy of St. John Chrysostom Op.31 - Fervent Supplication
TTITLE7=Liturgy of St. John Chrysostom Op.31 - Cheruvimic Hymn
TTITLE8=Liturgy of St. John Chrysostom Op.31 - Ektenia of the Prothesis
TTITLE9=Liturgy of St. John Chrysostom Op.31 - Nicaean Creed
EXTD=YEAR: 2008
EXTT0=
EXTT1=
EXTT2=
EXTT3=
EXTT4=
EXTT5=
EXTT6=
EXTT7=
EXTT8=
EXTT9=
PLAYORDER=
